<mxfile host="Electron" agent="Mozilla/5.0 (Windows NT 10.0; Win64; x64) AppleWebKit/537.36 (KHTML, like Gecko) draw.io/28.0.4 Chrome/138.0.7204.97 Electron/37.2.1 Safari/537.36" version="28.0.4">
  <diagram name="Page-1" id="ebQjVzU91OkPXuFwU88t">
    <mxGraphModel dx="1092" dy="891" grid="1" gridSize="10" guides="1" tooltips="1" connect="1" arrows="1" fold="1" page="1" pageScale="1" pageWidth="1100" pageHeight="1700" math="0" shadow="0">
      <root>
        <mxCell id="0" />
        <mxCell id="1" parent="0" />
        <mxCell id="fbcHfSkknigwFqv8QvJB-8" style="edgeStyle=orthogonalEdgeStyle;rounded=0;orthogonalLoop=1;jettySize=auto;html=1;entryX=0;entryY=0.5;entryDx=0;entryDy=0;" edge="1" parent="1" source="kRqdh9ee5JRcNYlr1lat-1" target="kRqdh9ee5JRcNYlr1lat-9">
          <mxGeometry relative="1" as="geometry" />
        </mxCell>
        <mxCell id="kRqdh9ee5JRcNYlr1lat-1" value="App Connect Enterprise&lt;div&gt;Callable Flows&lt;/div&gt;" style="shape=image;html=1;verticalLabelPosition=bottom;verticalAlign=top;imageAspect=1;aspect=fixed;image=data:image/png,iVBORw0KGgoAAAANSUhEUgAAAHgAAABsCAYAAAChI3ZfAAAAAXNSR0IArs4c6QAAAARnQU1BAACxjwv8YQUAAAAJcEhZcwAADsMAAA7DAcdvqGQAABcpSURBVHhe7V17cBvHff6OAN8iRUKU5AcJQC9biSU7sS3LsgBKnsS1JM+4qRvZE5Ee23+0lt3GqZuZTERnIrGNKE87GsWexI/2DzOx6FSWp0mno0eiJlII2pL8rOVnRT0AiLIsSgQpkQBfAK5/7O3d3t7hbvE4kqL1YQ6HW2APuP32+/1++7iFJMuyjKuYtijiE65ieuEqwdMcVwme5rhK8DTHVYKnOa4SPM0hfdWaSdH+NJ8Eb+30refTjuCOD0YQHUgj2p9CtD+FyICMaCwFQALYK5Ulbk+I9tW64K0tgrfWhcB8F3yeoiu6AlzRBIfCY4gOpNAVHkcoPI5oP0skQ6jhWIIEQJYBCRJkAJJM9/Ts+s8HFrix4bZiBBe44PVcOYRfcQR3fDiMUHgMXZExRPpThCAZOsLMCCV7Jd2QpqRn+rx6flIxAvPd8HmK8L3bi+HzSFOa8CuC4FBkFK8dG0YoMqb5UAMxmRSrTzdTLD3Wn8/6PPTY63Gh6XY3NixzT0mipzTBHccS6DiWQCg8al7Q0NSmEsaaXp2iBQhjzqe9Z048e35qQQILXNh0bym8U0jVU5LgjmNxbOsaRGQgJUYYeGKMJtb0M0y67nvYCqOWjt15tPcDC1zYsKwYTXe4lQyThylFcCg6io17YogOJE0LLjOhrIJz9cncZ6w+z52fVzL9fGChC5vuLUFgoYuedMIxJQiOXkpi474YQpFRpeA4RXEFJ0SGScXwznRx+QiisTSjXPK2pmB6Pv57jefPlB5Y6MKL3yOme6Ix6QRv3NuHjo+HzEmyKTh1r6aRvE3fKEfQVwIACPrJ3ltjraJofxqR/hQAoOt0El2nkoj0pxCNKSdWS8n895gpWbUgIL9r05oSbLjDPaFETxrBoTMj2Li/TzHHyFhw9FhfcHqFN91cjoCvFEFfiS2RuSB0KonfvDeGzlNJnInRnrAcKiSAwAI3XtxQMmEkTwrB2w4PoO3NAcjI3QQ23VyBlmC1I4RaIXSKqLvj3TFEY2mmAhornsG1MK9f2FCK4EKX40RPKMHRy0ls/P0FhM6MGms/+zqDYjcsrUTT0goEvaVanklE16kkth0YRTSWRrRfcd4wr5C6dJBrDSx0Oa7mCSM41DOMta+fIwd8TQcNbiTTZknTkhloCVTDO3Pymx1miPanse3AKEInkqQjxs4nK0TLAHy1EvZ8v9wxkieE4FDPMNa9cS5zjdbVbPqehJaVM9G0pHLKEssj2p/GswdGETqRUom2VDJz3R/91BmSHSc41DOMtW98QQ6YC9PVbOibJcGGMmxaORPBhjLubFcGQieTCtFJUyWbuyUJL2woQdPywlZmRwnu+OwyNh64kLnmqt+svX7p3jo0LZlB37ii0fHuOJ79A/HRptfNKJgSvWlNMX68ppieIm84RvDOzy5j44Hz1hemHktobCjD3gevVfNPF0T703jiP4bRdTJlULLqk8EqGdi0tqRgJDtCcOjsMNb9toe7oEwES2i5sxabVtTozjHd8OyBUXS8M046TgwVXDmGRvQL3yuMuS44waGzCaz9bY/5BTB7WoP3rb8Owfpy3TmmK0Ink3hy1wgifUrXqJVPhlSQwKugBEcGx7Hk16chQ2+KWPNDCfZWu7Hvr6+Htzr/WiqCcE8M4TN9CPfEEOmJAQB89R746z3wN8yCv97DZ3EE0f407nsxIaRkr0fCnr8vy4vkghEcGRzHTb8+aTA1+h9NXvuqivHJYz6a1TGEe2L41e6jaN99BGGF1Ezw13vw6Po78cj65Y6THY2lcd9LCYOS9a6sMO3kghG89r/OIHQ2oSUw4T9AOzKAxusrsPeB67XPOQBK7JYde/m3bEGJ3vz0Wv6tgmNp25C1kpV9Pj1eBSG47d2LaHvnovYDdT9W8ynB68qx74F6+iFHcOhwN+5+6Hk+OWtMFNFL24YMSjbzyZvW5BZZ5z2vJDI4jrZ3L5BfJgGQJEAiO3bvqy52nNzWHfsKQi4UK9C++whad+zj3yoo9jxRAd+sIqasSPlRr0Zfb9uvROBZIm+C1/13GDJkALK6h6y8Vva+Kjf2fsdZs9y6Y19OJtkK4Z4YtuzY6yjJ3toi7NlYAa9HMpSjWp7Kdt8vhrMmOS+C2967gMhQEhKnWk3JJP2lb10DX3X25kUUhw53F5xcFo6T7CnCiw+VGZRMyxUgZRrtl/Ha23T8XAw5ExwZHMfW93qZGkahr3Uty+oQvL6Ceb+wCPfECmaWrdC++wgOHe7mkwuGwAI3NtxenEHBUMtz2/6xrFScc5C1dk8YoS/iTEBljAKD11Zg3196dfkKjbsfel644P31HqxesQj++lnw1Xvw5yPdCPfEhPM/un45XtnezCcXFPe9lEDXCetJh4GFLuz5O7GBmJwIDp2LY82e07ofwLfn/FUl+KRpIZ+1oBCNmP31HryyvRmrVyzi3wIAtO8+itYde23bygBwcNdTGc9TCET701j3YhxnYnLmvmsZ+OinlULNppxM9MbOs5AUH0FdLeuDJUlC02Ln+5Z/9cZRPsmAR9cvx+m3Wi1JeXT9chx8/QfY8vQ6/i0DWn/unC+GEnQ1LyvhypPzyRLwxG9G+aymyJrgtg96ER4aVX0E9RSazwAC11Wg5bY6LmfhYWdaqXJF4K/34JH1yy0rAgCEz/TxSQXHj+8phbfWKqoGuk4k0fH2OJ/VgKwJ7uju19UsqmK2xr28+jo+W8HRvvuorUkVJZfCX+/B5n+w7tjIxmfngz1PVMLncZkqmar4tXfsI+qsCI4MjSE8NErqktLGVffKo+W22fBVOdckoqADBpnwqIAazbB6xSLbfH8+coJPKji8tUXYsKxYLVczJYcEVJwVwW3/e16nWv1GfETLrbP5bI4g3GNtKlfdaU2SFVbnkbeQ2HRPKXyeIkM/A+uTX3vXWsXCBEeGxrDzRIypQ/oHIE8YuU5j1Z3W0f+hI86baIoNt5cwyoVByV0nksqUIHMIE9xxsh+gLoBRLD2GBLTcOofP5hjs/G8+Q37+hll8kg75nDtbNN1eDJ+nSFEs31ohhFj5YmGCd57o07Rr4n9bvjlx5MLhQp6IIEoU3toiBBa41HKmD50vPpknwZGhMUTiYya1R6tFTYucb/ey8NdbqyyfQOjPNibY7rsLjabbSxjLSawny0HXyVRGMy1EcMdJzRySWkP35Nk3oxi+GeQuvomCnZ9s332ETxKGnYJ9DloPMwTmu9GgtIu1UtcrOVOwJUTw1mPnGMXqa48kAc2LavksjsPOT4Z7Ynjshzv5ZFs89sOdtv7drhnlBJo5FYPp2ZIkYNsfzHu2bAmODI0Zagu/b/nGXD6b46ADB1Y4dLjbVo0sDh3uRvtu6+7PRydgzpYZVs53K6Vt/gBkUzNtS3DH6T6l2hDF0o0q2F81saaZxSPfXc4n6UBVLDKWKzobJJ/2dT4IznfD63GR4tf5Y82qhk6SG9hZ2BJMQGoI+5oeNS2cePNMIdLrRGdlzLtrM9p3H9UpmkzLOYq7H3peaMIAmadlXamcRNNtJZAlqldWu+S565TRD9sOF1a+9r7CrX5ckg5j7f+LhQheM3n3EokOGbLw13ts/awZnB4qtEPXqSTu+/chvdZUXiQE5ruxZ6N+coWlgiPxUW1+FVNf2NeTSS4UFYsM87HIhVwRa+E0AvPdaKhRommTvojQyXHDYquWBEcztH2pT/ZNov9lITLMlw9Wr1iEg7ue4pMnBRoXhBDeH/OdHpYEd/YOMv6XblBfNy+Y+GjSDP56j23AlQ+cPHe2CMx3EwsqKZaU88k8LAmWwIZs+ihak/PUQKtAkJQrnDx3tgjMdxMFQ1Ey9Cp+87Q+krYkuPP8Za1mcHOdARmBuZV8lklB6459OflVUeTaaeIEvDVFuhhIfTC+mIUlwdTv6u2+dtw4t4rPMeGgzSCnkW2niVPw1ZLV+iTFeOq5kQydHZYEd164zNQW8kpbBsdo7ycDIsqi013ZWR5+5dbRLU+vUzcrhHtijk+4E4G3tghQ/C4khRNoPjkyoDfRlu3gyl3vaAfc3YK+yhJ8ev9S7f0c8cHFYbiLJPQOJzEwmkK5uwgSgBnFRah0F6G21IWqEhcq3BLKXEUoYtx+++6jtgT76z04/VYrn2wANcN2KqUVZTKxZHs/mVYL7a5Ndr3rS9u0kT1LBRvsO2vnM1YLe3SeG0L78Rh+9v55/Gd4AHujl/HZwAgGx1OIj+tNzHhaxmgqjfG0jDRXF0WCH9GJdyIT7iD4nY5DVpTLxUWUIxYZCY7ERw1tLHbLJYD+fc9l/OS9c3j584s43BtHbCzJRIOaz1dh8R0igVW2E+9Wr1hkq86pEHD5ask9TNrG+WQGGQmGLlbTH8mQ4a0U7+Q4mxjHk2+dwb9+dB4fxchN4rwn1/b2pkE0sNps41fNIJJnagRcGjPEJ5PbH/jysyRYr1j9+KOVulg892kv7v19Nz6IJZhoT8uu1jx6zB5kgIiCtjy9LqdhPZHJ8pMdcEUG0noFgylXUQX7Kks1u84/ZBnRuPkAM4v7/3QCOz790qB+qErVH5FX2rMZRNTjr/fkdWe+SL+zyNixc6Dq1TYZbB+FhowEA6R28L6XbIwETRCJj2HNH7tx+MKQ6iN0NY6xAgYl20hYRL12CrTDlA+41DI1litfdJYEm6uY1JdIfIT/uIrHj4QROk/a0AS0plGwitVrWHuWUerS/9p//rl9YCWiPhFM5YCLLKLOKhgmZUxgSTDUimIctYAkkeFEDmv+eByh3kFjrVIlquzUvYSlnnJ8+7oqfHdeDdbPq8HahmoEr52Bm2rLcENNKerK3Pjy3AD+ScDv5ateFlM24OLLlTn2cX/nY0Mwr179g8fWj79AZy/pv+bbaHqNkrR766vxj0vmYF1DNRbXlGFGsfnPKXVJ2PijDj7ZgFwDq0yYigFXdCDFlCerYraMNZiXqILGOdWGyJlVMRtohXoH0fbxWUbhili5vADwtZpy/NtdPtx7fTVqSuyX5BdRSb6BVSaImPyJDLgiAykDJ6yafdwfaVoSDLVO6OsF6RWTEU5oBD/+zmnlS5TPKmSqe+U8W2+9Hj+5JbtVZUX8nJ3SckW2AVe4J6ZuTiA6kOL4oItrkbIPzNPf2WlJcKCumrygDWjaoIYMWQK6LgwCALZ+chbh+AhjNPQmhBqO7csasKQmu4VHRXqsVq1YhJXLF2I8LVtuvPkShWjAJXm/j3l3bVY3eixyDaKIXuJNNHQmmoclwb7KUiYYIk+qiQYQURTc9qlmmjUTre8YeWG5H7fUZrfajmiPVfv2ZqRkIJFMW27DSeO8YVGIBFxmoNdw94PPCU3ftUNXZDyDiSYJAX8WCm6sm6nTpK5TGzI6L1zC4++c0qUZH8CTN87BrZ7syIWgaaaBVZlLwkhSRnw8zW2yug2MppEyVnIhiARcVqBEz7trc15q7gyTG/B1FlLW9sFsTDQUFbOOXK9oIHTxMknXKpFua6gowZM3ZHfnQ1iZr5xtYOUpc2EsLSORZDe9ii+NGieHi0Ik4LJDuCeGux98zvbazBAdSDEW0rgnkwH0sCW4sa5aZ+NlMD4ZMsLxEZKuTM/VdEv2671izRbaaUD9loh6eUUVF0kodxchnkxrG6fo/jwILlQTjF5rLkretGoGAv5ieGtcisdVOIExwAJsBvwB4NVoLx5//wQkYqHJhHeQAWayVz7IDDhTX39jVTneX2M/KSCXdSYzTWUdTcn4pH8EY7wtVg8lfHN2maGXTAS5TLK3QqZrEAX5J/RxdIXHEBlIoemWcmxarZ8nZ0swAFT87k3yQpOvjkj1GAzRMrBlaQN+9DXrFXdyIRcATr/VmlFR718cJkrNcGVfry3DtZXZrzSfzap6onD6bglbEw0TP2y28b5ZkoCVs60n5YlGyTzseqxml7n1ZjqZRjwpq9uXw8Z7eOwgEhOAuetRlDSne8GECG72ssszEP+qbVTMxnbyyjprgkX8rBnsVtgpdUlIjPPNpBTZxlPoH8neD9vd9Q+l4p1+qxUHdz2Fg7uesrQyFE4vrCZEcHDWTE6x3IIgqnK1drK/0v4PJEUUYQa7fHPK3SiSYFTwOFHwxZHsFWz3na9sbzZ0lfrrPTj4+g90aTzCDi+sJkRwY91M+CrI0CFVrqEtBhKF0Ye3wnpKTz59tyJdgYkUH0mnEE+mEFcUnS3svi9TTxc12ZMFIYKhmGmqUt7/mvlin42C7Vaqs4OdaRtJGdvAdPsykZ2C7ci1I9BuYTW78+cDYYKfucELX0Wp3vcCBp8sQyFb9xkj7BZRsYPdGh2JZFpVLGumE8k0BAawsoJdZbOLGZyEMMFQTDWvWFOfLAGR4TE+uw52BNnBLng5mxjTVJtKI6EoOp5MYzhpXfl42H2XnR+1c0d2588HWRHc1DDH1P8a0mTST20Fv3LrSC7I5O8o+kaSjGpTxP+qPjiFRCp7H2xnhs16psKCfzdgd+58kBXBjbNq8HDDXE6tmX0yHW3KBL6rURR2IzsXRpIYTqYxnEpjOCUrGxlNGk6mMS+HG9dF/OjdDz6nLvrSumMf5t212VLZEKis+SIrggGgqYEOHOh9rwYtbWekl0k3QmSclccr25ttlX+sf1ivYJ0fTqO6JOvLxiMCv5MOkmzZsVe4A8fpm8uzvtLGWTPhqywzqNXMJ4cuXuazG7BZ4M4+ii1PrxOqEK9096nNpERSVptGxBensbhW7A8tWPgdWGEnmx6vXJE1wQDw8i3kRxHdZvbJnRcH8GrUWsV0yO/grqcyKtOv3CHIdySYob27DwnF7+r2ylZVXISbPdkTDKUyZvqNuUBkKlC+EBpsMMPW41FsPR5hrLP5IERjXQ32B25S89mBRqSRnhhW3bkwqxr+RWIc9//xBPcbJEAxLLIs4fHFs/A3i3OP4MM9Mcy7azOfnDWcHmSgyJlgAFj8p7cRTYzqCDUj+pnFXjyzuEHL6BB++XkvfvnZBXKg+4NHqL+nfZUPd8zOfnYJCxpQ8VGzKCbyHuOcTDTFww1zTfyvcdv6+RnbiDpf7I70418+/hLxVBpxxdfGU8T30uPaMlfe5ILpYxaNHSj89R4c3PXUhJGLfBUMAFuPR/Cz4xHtTnP1j5z0f5fqqyjF/sBSpTessHizdwjfOdit++Mo1oIA5Df87tsLsLLAC8eEe2Jo3bHXsjODxBliAWKhkTfBAPC1P72tKdTCJ/vKC09yqHcQa/7nODnI4CIAiSw58cDX1XyFRpj5C3mKyR5oQKEIjgyPYM3hYwgnRhgFZS7wl29dpI5Q5YOtH3+Bto++MLUYAPP9AD79q5smfNHyqYCCEAyG5MiwfdAFWYK/ohSbFjfkRPTO0xfR9sk5RIZYq2H2PeT4mZuvRcvN16j5v0ooGMEAsLU7glfPnEdEUTJVlJXCGutqEKyrRrBuJnyVpRnJfjV8AV29g+i8MKgQqyfSzPfLMtA4txr775lcMzmZKCjBUEjeeea8kE82U17j7GrtWFkQNRwf1WZvmp6HM8nKPjinCvu//dUlF04QDACdfQN4/MPjwj7ZkK6mMeQJKpZ+X3BuNfZ/6wYlw1cXjhCMHHyyzpRDbN51pvMFZ1dh/7duVD701UZeHR1W8JWXYf+Km9FcP0cdI+b7rPm+a3XPL/DFLfRlSGMeLUuuu0ouA8cUzIKY7G5EEiOa+kyUl0mR4E2yomyyJ8r2VZbh5WXzEJxjPVX3q4YJIZjibz/8P4T6LmsLuFgQqktX08xN9cvL5uNh//T4Y8xCY0IJpth6PIqdPecVos0I5nwyDaIgqT652TcHwboqNF8l1hKTQjBFZ98lhPouofPiAKKJMYTjI0SvGZo9D3tnIzB7JhpnV2dsL1+FHpNKsBkiiVHiqwH4KsjA/FUyc8eUI/gqCov/B90y47ZeZ8BfAAAAAElFTkSuQmCC;" parent="1" vertex="1">
          <mxGeometry x="680" y="303" width="68" height="61" as="geometry" />
        </mxCell>
        <mxCell id="fbcHfSkknigwFqv8QvJB-7" style="edgeStyle=orthogonalEdgeStyle;rounded=0;orthogonalLoop=1;jettySize=auto;html=1;entryX=0.5;entryY=0;entryDx=0;entryDy=0;exitX=1;exitY=0.5;exitDx=0;exitDy=0;" edge="1" parent="1" source="kRqdh9ee5JRcNYlr1lat-3" target="kRqdh9ee5JRcNYlr1lat-1">
          <mxGeometry relative="1" as="geometry" />
        </mxCell>
        <mxCell id="kRqdh9ee5JRcNYlr1lat-3" value="&lt;font style=&quot;color: rgb(0, 0, 0);&quot;&gt;Switch Server&lt;/font&gt;" style="image;aspect=fixed;perimeter=ellipsePerimeter;html=1;align=center;shadow=0;dashed=0;fontColor=#4277BB;labelBackgroundColor=default;fontSize=12;spacingTop=3;image=img/lib/ibm/blockchain/communication.svg;" parent="1" vertex="1">
          <mxGeometry x="620" y="154" width="60" height="60" as="geometry" />
        </mxCell>
        <mxCell id="fbcHfSkknigwFqv8QvJB-18" style="edgeStyle=orthogonalEdgeStyle;rounded=0;orthogonalLoop=1;jettySize=auto;html=1;entryX=0.5;entryY=0;entryDx=0;entryDy=0;" edge="1" parent="1" source="kRqdh9ee5JRcNYlr1lat-4" target="fbcHfSkknigwFqv8QvJB-1">
          <mxGeometry relative="1" as="geometry">
            <mxPoint x="488.5" y="148" as="targetPoint" />
          </mxGeometry>
        </mxCell>
        <mxCell id="kRqdh9ee5JRcNYlr1lat-4" value="&lt;font style=&quot;color: rgb(0, 0, 0);&quot;&gt;Clients&lt;/font&gt;" style="image;aspect=fixed;perimeter=ellipsePerimeter;html=1;align=center;shadow=0;dashed=0;fontColor=#4277BB;labelBackgroundColor=default;fontSize=12;spacingTop=3;image=img/lib/ibm/applications/enterprise_applications.svg;" parent="1" vertex="1">
          <mxGeometry x="360" y="40" width="50" height="50" as="geometry" />
        </mxCell>
        <mxCell id="kRqdh9ee5JRcNYlr1lat-9" value="&lt;font style=&quot;color: rgb(0, 0, 0);&quot;&gt;Database&lt;/font&gt;" style="shape=datastore;whiteSpace=wrap;html=1;labelPosition=center;verticalLabelPosition=bottom;align=center;verticalAlign=top;fontColor=#C74634;fillColor=#C74634;" parent="1" vertex="1">
          <mxGeometry x="810" y="303" width="60" height="60" as="geometry" />
        </mxCell>
        <mxCell id="kRqdh9ee5JRcNYlr1lat-14" value="" style="endArrow=none;html=1;rounded=0;strokeColor=#000000;strokeWidth=3;dashed=1;" parent="1" edge="1">
          <mxGeometry width="50" height="50" relative="1" as="geometry">
            <mxPoint x="340" y="256" as="sourcePoint" />
            <mxPoint x="880" y="256" as="targetPoint" />
          </mxGeometry>
        </mxCell>
        <mxCell id="kRqdh9ee5JRcNYlr1lat-29" value="&lt;b&gt;IWHI&lt;/b&gt;" style="text;html=1;align=center;verticalAlign=middle;whiteSpace=wrap;rounded=0;" parent="1" vertex="1">
          <mxGeometry x="820" y="179" width="60" height="30" as="geometry" />
        </mxCell>
        <mxCell id="kRqdh9ee5JRcNYlr1lat-31" value="&lt;b&gt;On-prem&lt;/b&gt;" style="text;html=1;align=center;verticalAlign=middle;whiteSpace=wrap;rounded=0;" parent="1" vertex="1">
          <mxGeometry x="820" y="266" width="60" height="30" as="geometry" />
        </mxCell>
        <mxCell id="fbcHfSkknigwFqv8QvJB-6" style="edgeStyle=orthogonalEdgeStyle;rounded=0;orthogonalLoop=1;jettySize=auto;html=1;entryX=0;entryY=0.5;entryDx=0;entryDy=0;" edge="1" parent="1" source="fbcHfSkknigwFqv8QvJB-1" target="kRqdh9ee5JRcNYlr1lat-3">
          <mxGeometry relative="1" as="geometry" />
        </mxCell>
        <mxCell id="fbcHfSkknigwFqv8QvJB-1" value="webMethods Workflow" style="shape=image;html=1;verticalLabelPosition=bottom;verticalAlign=top;imageAspect=1;aspect=fixed;image=data:image/png,iVBORw0KGgoAAAANSUhEUgAAAGIAAABoCAYAAAAKPiVoAAAAAXNSR0IArs4c6QAAAARnQU1BAACxjwv8YQUAAAAJcEhZcwAADsMAAA7DAcdvqGQAABbLSURBVHhe7V15cFT3ff+8vbQr7eriEBjp7QKWbQzGzmWDo5WxEx/ISZrUceOxSHy0tSGeMvW4MwWR1kmmFrTTNImnE2A601BbcpySOLeInYkBrWIgMbaTCIgtDu1KGCOBpL337fF+/eP37mO1khb0pOaz89N3373v+/kev+s9MYQQgj9j1sFcTSJCg1lEJgqITPCITBQAMGBr7GBrbWBr7fDXUfn/EVeciNBgFt2/TyE0mKPKJwADBsRQAsGAC9vuqkRwuVN7qnmNK0ZEKMxhV28CocEsAAYQr0KgWNZKAIQBAAQDTjz8ITfaP1whbJjfuCJE7AzF0dkbk5QKolY4A0ieYEyITEz7h9zYdlcl/HU26fzzEWUn4v7uSwiFObpgQoR6m3K9VtL9/HU2/PzxmnlNRlmJuL97BL2RLFWioWKNidDnCjlniPuxtXb0/HUN2HlKRtmIaPveCELhLACAIXLo0Uo9IcplrVQTxtbZ0fP4/CSjLETs/E0UnX1RdSiCRsnC9/abKxFkaQJma+zoC2fRN5jF4HgBDBiEBWlGTDDgxO4HfPOOjBkTERrKoO3lEUHZlACGMCCiZ4ABQ4BftC9E0F+8BhQazGLLj2OITPCmRIAw6LirEtvu8qiOneuYMRFtL3+A0BCnIkLpEUHWjT2fqgNb41AdVwxbfhxD19tpg9Amn7v/mTqwdfOn8Tcj/47E8ggNc1RDBiXod6OnfdGUSACA3Z+tRsedXoABGOFcohRL99tCzWyeYEZEdL4xIQR/wakY4TtDwNbY0fPwIu0hJWP7hiqwtTbF+aXYBADY+XpKtf9cx4yI6D6ZECyU0XnDnrZ67e5TRs+jQvgx8DYwEPqr5gemTUQ4lgcRPhAloZKtsSPIurWHTBlsrR0tAad8fo2cT+FpWkR0n4xjy6uj1BGUMdwGMAyDTWu82kOmjWDApb+OILvfzmDnwdS88Iwp1Zo2/2oEXSfidKFIg63j9lpsv71We/i0EJko4KZvj4I3uA4UMhhwYvdfeudsTaokjwidT8P7/Gl0n4pL1skIeUFrqWCAlqaZhyURbK0dbJ1ddz1tCQ3msOY/xtH5ehqRcV57GstjUiK6TsXQ9sqwFJdL+QTLSAQAsLU21fm1uUIpd72exJZX4oiMz61wVZSIrj/FsOXXH0hWJ1u/bJ1GpdxgwKjPX0SK3tH9NjenPMOUiND5FDb/+oJkb0bWR//CYFuZIbZPxEXQtgqjK5DkroMpdL+dUZ3GyjBN1qtfPItIPAdCGDAoPpDTfqNP7tYAsOee6TfkjPCtIwkMR6l1D0cLOB+lfVFDwjrt7wFk3vq21KGx1tTeZoTIGEFkjEfkMsDWM2hpnv51DInofPMSOn97iS4Y9aSCQcetC9C+ygd/9eyNLf/0VAZ7jqVwIc7ram9i39RHG534r8/7tIfOCLtezSI0UEDfaXXnJFvPAIRBsNmGf9zohH9B6XHakAjvnj+ZWBgDv8+JPZ9YguAya/R+fpDg8W+HE3jnQt7UM156uBpLfNO3VhGRMR73fyeNyBjRGaZ8Pap8to5B+zoHtm0srZ9N9+vC8ZygdWURQbDnEw2WIQEAlnht2LbBi+sW2lHnYYQCoTCoq2TQezanPWzKCJ3JY+1zCYTHeZoLFf1qaj3R75Exgp09OXy5iw6WTQYdEd3vTVCftlGiJckAHbcuRHBZpfaQWcfiKhvarndLiq+rtAmFEhOeYcu770wen96TAmFo7Q2KmqNUFPpS1iq7j/HYdSCvPaUOOiJ6LyQp40RgWZQgCF5jHU/Q4jOrKrBygR31HoaWSrmMJmdWjd35Kw68UCPU1xwFqdCXdlv30Tz6Bor/Bh0RDGQ2VYwzsKQ3KFHrFj3BhjqPUITlaEYZYktH95tZ9J3Na9oxSs9QS6MyNE6wZZIQpSMinOCEGAh1DGSmdyNXEzcscqDOY0O9kCsk7/AwsDHavUvDS8ezIIzgC4KEKAG0f8yJ7fe6sP0+F601afXF0D0jY6SoV+iI8PtcKsapGdDvNJFbF6PJgkyCyjMY+Cqmx0TfObU3KD3gF1+uxHcecmPbvS5su9eFXzzlRkuzfvxEPKbv9BSIYH1OKRbSj1BLIASh9607KpbOE9R6bIrCSGVpte42S0LobE6tCyH+E0Lw8EedaFmp7ull623Y/VAFGGEfbc4InTavNOh+od/n1FiAnDO635vQ7m4ZjKd51Hts+lJpQ41bd5slITJBW4VKLxCLlgQRbL0N7AKbIqLIJTI2BY8ILqmSY6GQ+8WcEXo/ic7jo9pDZh05niCdI4p2hLLY0FSju82SwNYykgYACHqhsliHYmS8YNjOCDYbkwdDIpZWIeCjo2KyNcg5o/P4KLrejWoPmzXkeIJklsi1JF2hZEwHQxO8qUe8dNy4FrTrtSwI5EgiFZvQBWICw1/Y3lyrjo2az+ZD53HfT8MIvZ+a1QROADhsDGrcWuXLpX6aJPznb9J45mdCm0qMCopPeLyANTtjCJ2RG2s7X+PQ+VpGd4yYY5uKEGHY1wQAq//3XVnJRh1/iu9+n0u9TbkvlOvV23seWAZ/dWl9MVcLFxM8nvpRAgOjBcQ5IJEh4PLaubygvdLCvbC1dhqqDCbYScsE+OM/VZl6hSkR4UQWG3vOIRzPyj/AYColoLywQuq2QUdI/2MBBCxCxOUUj95zObzwZgZxjiDBEcQ5gniGIMEB+QJ0vx8wvj+lvsRt2++twLZ7XcJBepj6rd/rwqbr6hDwuSDGR1katzO0RX2MOsaKh1kBh85msfNgEgfezcLjYuBxMXA7qfQ4bfC46I/V34965FAsyn3AAOwCW1ESgCIeISJ0IYHNvecxmMgaWD4VDNGOAxS3GFH2PxpAYBrjGYeODGBweAzh4TH4G+lEtkBjPTasb9buWhTJLMGPTmRwPsarvUD0hCxBPAO6PkOQFjumze5Ppx8qe7ZUomVlcc+flAgowlSkxJyhl8aue+KRQMkDS4eODOB/fnAM+/Yf026SIJJxx7pmPPrgbdrNEjJ5guFoAe9cyCPO8TQXcDxinKB0RUlkgDhHUOtmcMs1DrzwJmc4AKUORVSytXbs/oJ7UhJQKhEiugbG0fnWCMKJHFVosZxhSohMYv8jyyf1iMHhMTz+D104+MaAdlNRBBrr8d1vbNJ5yViax7nxgqBwHvEs9QQdARxBnAPiGYINK13450/SDs/IeAFbfphE6Gyu6P1t+6QbHXeXPptlSkSICF1IIvRBUurykD1F2MHIRbXbAPR/aTnkJT327T+Gx57p0q4uGYHGejz64Do8+/RGAECM4xHjCGIcQYKj4SjOCSFIRQAtbgeDJ27zYO0SvUWHzuUQGefRdzYvPc8RXOFEy3IHWlbo958M0yLiauCxZ7qKhqGp4KtPt+HZpzeCKygUnZWJiGd5aX2CI3DYGKxpcGDj9cUfrCknLEnEoSMDuPMLz2tXzwgiGakcQYzjVV5AvYISw9bYcU/z1SNAhGn1dbZwJUgAgH37j+LQkQG4HQwqnQw8DgYeJ4NKJ+BxAvUeGz59g3tWSIAVPeLOLzyPQ0eKJ2Yx9gOAv7Eeh4/S6uxkx21Y34yD39+KbEHOC5k8QZWTQWONeYfc1YCliJgsOWuTrxZf++YBfPWbPdrVKhz8/lZsWN+MdJ4gX8C0B4zKDUsRMVmCPvfG1xAQGnBmGBwew4qPP0vnPBhA9AqrwVI5ohgJr7+8dVISIHjNf//7Ju1qCYNDl7WrLAHLEFEsvm9Y36xrmBXDow/eZrp/KblkNmAZIgaHx7SrJJTiCVpsWGdMBCa51mzBMkQUQ+ttzbQ3cwq4Y9212lUSwn8mwhzFlDMdjyhm9WKPrZVgGSKKWfDhY6e1qybF4aPWywPFYBkiiuHw0QHT6qgZiiXk6XjYlYZliAg0LdCuknDoyEDRqq0W+/YfKxqazGpUswnrEDHJCNvXv9VTVLkixPELMxQbMJpNzCoROZ4gmeORytPJWs/+vXHXBQQF3/lX38bXvnlAu0nCvv3HiraqAeCRz1MixF7YHF9k56uIWeviGE7mMMEV4HPa4HPa4XPZ4LQxJXf6iUOiEGpc+/YfndRjtJ1+iSyPTIHA42DQNMuzSa46EYkcjyMjSdjBwOu0odplp9Jpg9dpR+T8GJbf/qz2sLLg4Pe3onVdMx0UygpjElk6XFrgCdYudqGhanZ6Ya9aaIpmCzgyksT3zozjciaPdIFaYzrPI5PnkS4QpAu8NNZcbih7XdN52v2dztM5s5k8j7E0j58NpPDq2TSinPm81iuFq0JEz3AMu35/EQffTyBd4JESlJ7K89JyKs8jnefBFQgeffA2fPXpNu1ppg2x74kqn0c6xyMlfs8TpHKUlFSe4PgFDnvfiuPA6bT2NFcUJYemcJJDOMkhNBJHaCSOcCKL1oZqtCzyIlBVgWCD/lnmi+kcvv7OBaQLBNUOMQTZ4XXa4XMIuUEISWJoqq2g+zElji9Mhu9+Y5NUU4pneUxwPB0WFcKSOERKx7CFWR1Zmsg9Dhue+LAXaxfrJ4dFonl0/yGN8IQ8eYCttSPor0DQ75ryy+ZLIqLz5Hn8S/95OuPCaE4TGPgrXdizLoDWBh+GU1n0DEfRfWZMULYdPocoRQJkEnxOGxZWOLC00okFbvUNlHM6TYEAE5kCBmN5mQxJ+TRviLM6YpwwoSDLY4Pfg7/5kBfLfHZEonls+fk4esNG85uoPthaB9rXerD9jtLfW1WUiHCSw+Y3z+DwSFyleDqhSv1qCFE+smIhfjYchc9hg9dhpx6gkqIHUMv3OuxYVevGTfXF5wDt238Mh48Wb9gFGusRaFqARz5/W9H2QiZPcD6Rx1sXOQ0RlJiEMNcpJszuiGUJ6ipsuLnBhRd+nzQ2RvE75OlDbK0dB760oCTvMCWidzSGjb0n6ULRCWP69R67HV6HEIYcSm+g1i9+v6bSiXsafVjiKT7JTInB4TEMDl2WqqritMvJGoRGSOZ4vPJeEufjBQMPEb/LMwHTwvQto4l1dFk7j4v+f4zdn6lBMKAPb0qYEnFf6AR6R2J0YRIijFxUVLrX7hAIkUOSv6oCLQ1V2LBUn1cmA0+AAiHUGwUbFKWNmfrTozGOx1sXOfz0dFJqW9CcIXgHxyOWpUToJ85B7xEGkq2148TWxdI1jWBIxHN/GsJzp4ZVTCtjoJoIgx8FBg4wNAQ5lMnZgbZl1Xjy+um/vYYrECRyxtXLKqcNbvsUmRBwOV1A71AGL/TH6UxAsY3BUUIKvPJe1ZIp4V3o7Ws92P0XNfIFNTAkovLHbxiwrPkBim00V+hzhsduh9duQ7XTgeZqN569eSlurp/ZQ/OJHI/RtNErFRgs8tC8MxNcTBbw1GuX8O5Yjs6JzfLI5ImxwQnr2BonIhP5ovpia4rnC92vfjEyopr/T6W4DHxldSNe3bAKp+6/Ba/eeQMCvgrA5En8DM9joceBv71uIV65c+WMSQCALE8QzfIGpYBsQWdTU0ZDlR3P370QT9ziQ0podNIHH+h9KUswUIETW5bixJYlOPHlJehorZbuXVuGogWEo1N4vDeSzkjPCKueAyMEHTc2omNVI4KLquGvqkBwUTUO3HGD5uky+QMQfOtjLLauatBeZtrI8QSxbAHxXIHKrCzL1YF3jdeOv/tIDX74uQadDsRltsaOnocWS6/bZmsc2N5SjT3319L9Fc9ki58+4d86GEFPRMrkXd82BjtWNWp3h7+qAl9Zs0xhCfJTNBA8s5zIFgiiOR4TgicoZbZMRIgIR+lbByRPV7x5xuwFw0F/hWF0AAP0if9pxgA6IsLpNM0+UpKgScBfaV79aqp0CVaj/gsQDCbMLz4dZEWPED1B8gweuTKEJiXYGrvaIwBJJ36TF8+zNQ401TgARtCCKBVnMIKOCH+lR+cNDIBwmkPoklCd1aA7fEkVD6HIGQFveSf15nmCWK6AaLYgSyFH5PT1jhlDa9W0MAgNGb+4MRLNYyiW13uEDfCbJGoYEcFWVigsQGkNBE8cH0A4pbbwJ988jd7RqBQHtR+2ytyTpgOarPUkxHLlSdZKsNXa95LQD0DQO5RGd39Cewg294yB1+iNgOaXFr+5LnTV197LUdx35A8CBwxdqZD+ygq0LqgBW+VG9+AIBlOcaTtjU2Ah9t66Qnn6GeP4pRR+eC4qXweCvQB4YEUNPrKovC/3avvB+wgNZ1T3JUugfbUPwcYKRGIF+u99oNeb2M448dRSsCazznUe4fdQRdPrCVdT5IxwKoMXh0bw3KkIBlPUPQkI6HuJ5HcaERC0LK5WnbscyPF0bEP2CPo9lisgX+ZkDQAP3+jTW7ckge7+ODb/8hI6fzMh60mTYwlDOwLNSIAhEZVu7L3lOk1MFIpNEfOEGpI2FoqltaEaXwws1J5+xsjxvECCIHMFRHO05lTuWhMAtDZ6EGzyGN6rrBshkWqLQl97PlWnPbUKOiIAwO9xY8d1rN4CxPaFSTuDCNsICDpuXKY9bVmQk3JEnnpDtoAol0csV752hBJstQO7714EqN7qp/5odaDV1/aPV0v/acwMhkQAwKamBuy43m9iAQbFJliFDXj1jhvRuqj8YQlCso4LXhDLU4+I54WW9RUgAgD81U70Px6gt2hQJP1o3nAJ4f8sbW+ZXBemRPg9buxo9gueQaOdWQwEQ/fwV7pwILgawStEAgQiJoS2w0SWegKV+StGBAD4qx3442MsWho9ek+QJCSdsDUO7GmrR89DxXtdRehqTUYIpzPoGhpB6PIEesW2BIFUKwh43GhnF2PHDU3qA68AfjA4gW2/e19TS6P411uvwQPLzXs4ywH6n8bS6D6ZQGg4LVqoJFmfA5vW+LB9/dR+R0lEKBEWakq9l6Pwe9xoXTi1C84UL58dw9ajwyoFEMFZn7+9EQ+tLJ4Uy4lwLI9ILIdwNA9/tQPBpulXnadMxGyi68wYOv9wQXoFhUiE2O0e8Lqw7eYGtC6tgt9r3niyIuYEEeFkFm2/ek/zhhyoQoIcohkEl3ixN9g4p8iwPBHhZBarf9JPa4KQ85LSE/QjYrRXuGfj8jlDhqWJCCc5rPrJHxWKVhNh5hHidn9VBQ60rZgTZJhWX62Azv4LmnaMSQtWKso6PINIKovOdy5qT2tJWJaIcJJD17lRXX1dNn0oviu3iTV6ekzXwDjCCfORMavAskR0D15WWLe+Zb/j5qU4+bk1+OU9zdh0bb3wTnP1vuJo4c454BWWJaJ3JGbagv3lJ5rRcdNS+KtcCDZ4sXe9H5tW1is8QpYEhNa2LA7LEhEajQl9Oeq+m4DXeMJzx9qlKq9Qlr6LSe3uloMliQgnOZVdK+N+sMF8Yq+8TZszlHnFmrAkEf6qCgR8dDYEY6M1INEjwknzyQihi3GVJ0he5Ptz9XXaYD0uasuKeUEEBL0jMbx4TvgfeQr0XowLJGk9gaDJW/ok59mCZYnwe43nBzEMg82/PYcnj52THprp7L+Ajb9+z7Sd0brEPJxZBZZtWb8YHsWTvztDF0qca6udvCAee/Jzqy3furasR3zRvwhfWd0oeIG6KHOGVmrLpmvrLU8CrOwRIlYdeAvhZFZj6UqLV3uEUgaqXDj52ZtU57MqLOsRIvZ+9Fosr6qQrF5faF7QegbDAHvXB7Snsyws7xEAEE5x2Hj4BAaTQgt5kpzRurgae9cF4K8qPnPCSpgTRIjoPDWMrsFRGqogECJK4S46Vi/DjjXXyAfNEcwpIkSEkxzCKQ6hUfq0K1tVgdZFvjnlAVrMSSLmI/4PqN05jzH1VkIAAAAASUVORK5CYII=;" vertex="1" parent="1">
          <mxGeometry x="460" y="154" width="57" height="61" as="geometry" />
        </mxCell>
        <mxCell id="fbcHfSkknigwFqv8QvJB-16" value="" style="endArrow=none;html=1;rounded=0;strokeColor=#000000;strokeWidth=3;dashed=1;" edge="1" parent="1">
          <mxGeometry width="50" height="50" relative="1" as="geometry">
            <mxPoint x="340" y="130" as="sourcePoint" />
            <mxPoint x="880" y="130" as="targetPoint" />
          </mxGeometry>
        </mxCell>
        <mxCell id="fbcHfSkknigwFqv8QvJB-17" value="&lt;b&gt;Internet&lt;/b&gt;" style="text;html=1;align=center;verticalAlign=middle;whiteSpace=wrap;rounded=0;" vertex="1" parent="1">
          <mxGeometry x="820" y="90" width="60" height="30" as="geometry" />
        </mxCell>
        <mxCell id="fbcHfSkknigwFqv8QvJB-19" value="&lt;b&gt;&lt;font style=&quot;color: rgb(51, 51, 255);&quot;&gt;REST API calls&lt;/font&gt;&lt;/b&gt;" style="text;html=1;align=center;verticalAlign=middle;whiteSpace=wrap;rounded=0;" vertex="1" parent="1">
          <mxGeometry x="500" y="70" width="60" height="30" as="geometry" />
        </mxCell>
        <mxCell id="fbcHfSkknigwFqv8QvJB-20" value="&lt;b&gt;&lt;font style=&quot;color: rgb(51, 51, 255);&quot;&gt;Callable flow invoke&lt;/font&gt;&lt;/b&gt;" style="text;html=1;align=center;verticalAlign=middle;whiteSpace=wrap;rounded=0;" vertex="1" parent="1">
          <mxGeometry x="710" y="179" width="60" height="30" as="geometry" />
        </mxCell>
      </root>
    </mxGraphModel>
  </diagram>
</mxfile>
